<svg xmlns="http://www.w3.org/2000/svg" viewBox="0 0 1536 1024" font-family="Inter, Segoe UI, Arial, sans-serif"><defs><marker id="ag" markerWidth="9" markerHeight="9" refX="7" refY="3" orient="auto"><path d="M0,0 L7,3 L0,6 Z" fill="#22c55e"/></marker><marker id="ab" markerWidth="9" markerHeight="9" refX="7" refY="3" orient="auto"><path d="M0,0 L7,3 L0,6 Z" fill="#3b82f6"/></marker><marker id="at" markerWidth="9" markerHeight="9" refX="7" refY="3" orient="auto"><path d="M0,0 L7,3 L0,6 Z" fill="#2dd4bf"/></marker><marker id="aa" markerWidth="9" markerHeight="9" refX="7" refY="3" orient="auto"><path d="M0,0 L7,3 L0,6 Z" fill="#f59e0b"/></marker><marker id="ap" markerWidth="9" markerHeight="9" refX="7" refY="3" orient="auto"><path d="M0,0 L7,3 L0,6 Z" fill="#ec4899"/></marker></defs><rect x="0" y="0" width="1536" height="1024" fill="#0a0f1c"/><text x="768" y="40" fill="#eef3fb" font-size="30" font-weight="800" text-anchor="middle">ClaimIQ — Production Architecture · OpenAI Agentic Pipeline</text><rect x="22" y="60" width="1492" height="104" rx="14" fill="#0e1a2e" stroke="#294a7a" stroke-width="1.6"/><rect x="34" y="90" width="44" height="44" rx="11" fill="none" stroke="#3b82f6" stroke-width="2"/><text x="56" y="120" fill="#7db3f0" font-size="24" font-weight="800" text-anchor="middle">1</text><text x="92" y="104" fill="#7db3f0" font-size="17" font-weight="800">Sources &amp;</text><text x="92" y="125" fill="#7db3f0" font-size="17" font-weight="800">Channels</text><rect x="22" y="170" width="1492" height="104" rx="14" fill="#0e1a2e" stroke="#294a7a" stroke-width="1.6"/><rect x="34" y="200" width="44" height="44" rx="11" fill="none" stroke="#3b82f6" stroke-width="2"/><text x="56" y="230" fill="#7db3f0" font-size="24" font-weight="800" text-anchor="middle">2</text><text x="92" y="214" fill="#7db3f0" font-size="17" font-weight="800">Ingestion &amp;</text><text x="92" y="235" fill="#7db3f0" font-size="17" font-weight="800">Guardrails</text><rect x="22" y="282" width="1492" height="200" rx="14" fill="#101d13" stroke="#3f6b2a" stroke-width="1.6"/><rect x="34" y="360" width="44" height="44" rx="11" fill="none" stroke="#84cc16" stroke-width="2"/><text x="56" y="390" fill="#a3e635" font-size="24" font-weight="800" text-anchor="middle">3</text><text x="92" y="374" fill="#a3e635" font-size="17" font-weight="800">Agent</text><text x="92" y="395" fill="#a3e635" font-size="17" font-weight="800">Orchestration</text><rect x="22" y="490" width="1492" height="100" rx="14" fill="#17112b" stroke="#5b3a86" stroke-width="1.6"/><rect x="34" y="518" width="44" height="44" rx="11" fill="none" stroke="#a855f7" stroke-width="2"/><text x="56" y="548" fill="#c4a0f5" font-size="24" font-weight="800" text-anchor="middle">4</text><text x="92" y="532" fill="#c4a0f5" font-size="17" font-weight="800">OpenAI</text><text x="92" y="553" fill="#c4a0f5" font-size="17" font-weight="800">Intelligence Layer</text><rect x="22" y="600" width="1492" height="100" rx="14" fill="#1d1608" stroke="#8a5a12" stroke-width="1.6"/><rect x="34" y="628" width="44" height="44" rx="11" fill="none" stroke="#f59e0b" stroke-width="2"/><text x="56" y="658" fill="#fbbf24" font-size="24" font-weight="800" text-anchor="middle">5</text><text x="92" y="642" fill="#fbbf24" font-size="17" font-weight="800">Google Cloud</text><text x="92" y="663" fill="#fbbf24" font-size="17" font-weight="800">Data Plane</text><rect x="22" y="710" width="1492" height="100" rx="14" fill="#0b1f1c" stroke="#1a6b62" stroke-width="1.6"/><rect x="34" y="738" width="44" height="44" rx="11" fill="none" stroke="#14b8a6" stroke-width="2"/><text x="56" y="768" fill="#2dd4bf" font-size="24" font-weight="800" text-anchor="middle">6</text><text x="92" y="752" fill="#2dd4bf" font-size="17" font-weight="800">Notifications &amp;</text><text x="92" y="773" fill="#2dd4bf" font-size="17" font-weight="800">Human-in-the-Loop</text><rect x="22" y="820" width="1492" height="100" rx="14" fill="#1d0f18" stroke="#8a2b56" stroke-width="1.6"/><rect x="34" y="848" width="44" height="44" rx="11" fill="none" stroke="#ec4899" stroke-width="2"/><text x="56" y="878" fill="#f472b6" font-size="24" font-weight="800" text-anchor="middle">7</text><text x="92" y="862" fill="#f472b6" font-size="17" font-weight="800">Security &amp;</text><text x="92" y="883" fill="#f472b6" font-size="17" font-weight="800">Observability</text><rect x="258" y="78" width="258" height="68" rx="11" fill="#0e1626" stroke="#3b82f6" stroke-opacity="0.55" stroke-width="1.4"/><rect x="271" y="92" width="40" height="40" rx="9" fill="#3b82f6" fill-opacity="0.16" stroke="#3b82f6" stroke-opacity="0.5"/><circle cx="291" cy="108" r="4.2" stroke="#dbe6f5" stroke-width="1.7" fill="none" stroke-linecap="round" stroke-linejoin="round"/><path d="M 283 121 q 8 -11 16 0" stroke="#dbe6f5" stroke-width="1.7" fill="none" stroke-linecap="round" stroke-linejoin="round"/><text x="324" y="104" fill="#eef3fb" font-size="15.5" font-weight="700">Claimant</text><text x="324" y="121" fill="#8593aa" font-size="10.8">submit claim</text><text x="324" y="134" fill="#8593aa" font-size="10.8">email + attachments</text><rect x="650" y="78" width="258" height="68" rx="11" fill="#0e1626" stroke="#3b82f6" stroke-opacity="0.55" stroke-width="1.4"/><rect x="663" y="92" width="40" height="40" rx="9" fill="#3b82f6" fill-opacity="0.16" stroke="#3b82f6" stroke-opacity="0.5"/><rect x="672" y="104" width="22" height="16" rx="2.5" stroke="#dbe6f5" stroke-width="1.7" fill="none" stroke-linecap="round" stroke-linejoin="round"/><path d="M 673 106 L 683 114 L 693 106" stroke="#dbe6f5" stroke-width="1.7" fill="none" stroke-linecap="round" stroke-linejoin="round"/><text x="716" y="104" fill="#eef3fb" font-size="15.5" font-weight="700">Gmail Mailbox</text><text x="716" y="121" fill="#8593aa" font-size="10.8">IMAP · unread poll</text><rect x="1108" y="78" width="258" height="68" rx="11" fill="#0e1626" stroke="#3b82f6" stroke-opacity="0.55" stroke-width="1.4"/><rect x="1121" y="92" width="40" height="40" rx="9" fill="#3b82f6" fill-opacity="0.16" stroke="#3b82f6" stroke-opacity="0.5"/><circle cx="1141" cy="108" r="4.2" stroke="#dbe6f5" stroke-width="1.7" fill="none" stroke-linecap="round" stroke-linejoin="round"/><path d="M 1133 121 q 8 -11 16 0" stroke="#dbe6f5" stroke-width="1.7" fill="none" stroke-linecap="round" stroke-linejoin="round"/><text x="1174" y="104" fill="#eef3fb" font-size="15.5" font-weight="700">Adjuster / SIU</text><text x="1174" y="121" fill="#8593aa" font-size="10.8">reviews · approves</text><rect x="232" y="188" width="240" height="68" rx="11" fill="#0e1626" stroke="#3b82f6" stroke-opacity="0.55" stroke-width="1.4"/><rect x="245" y="202" width="40" height="40" rx="9" fill="#3b82f6" fill-opacity="0.16" stroke="#3b82f6" stroke-opacity="0.5"/><rect x="254" y="214" width="22" height="17" rx="2.5" stroke="#dbe6f5" stroke-width="1.7" fill="none" stroke-linecap="round" stroke-linejoin="round"/><path d="M 259 220 l 4 3 l -4 3" stroke="#dbe6f5" stroke-width="1.7" fill="none" stroke-linecap="round" stroke-linejoin="round"/><path d="M 266 226 h 6" stroke="#dbe6f5" stroke-width="1.7" fill="none" stroke-linecap="round" stroke-linejoin="round"/><text x="298" y="214" fill="#eef3fb" font-size="15.5" font-weight="700">app/run.py</text><text x="298" y="231" fill="#8593aa" font-size="10.8">poll · watch · demo</text><rect x="486" y="188" width="236" height="68" rx="11" fill="#0e1626" stroke="#3b82f6" stroke-opacity="0.55" stroke-width="1.4"/><rect x="499" y="202" width="40" height="40" rx="9" fill="#3b82f6" fill-opacity="0.16" stroke="#3b82f6" stroke-opacity="0.5"/><rect x="508" y="214" width="22" height="16" rx="2.5" stroke="#dbe6f5" stroke-width="1.7" fill="none" stroke-linecap="round" stroke-linejoin="round"/><path d="M 509 216 L 519 224 L 529 216" stroke="#dbe6f5" stroke-width="1.7" fill="none" stroke-linecap="round" stroke-linejoin="round"/><text x="552" y="214" fill="#eef3fb" font-size="15.5" font-weight="700">email_io.py</text><text x="552" y="231" fill="#8593aa" font-size="10.8">IMAP read · SMTP send</text><rect x="736" y="188" width="262" height="68" rx="11" fill="#0e1626" stroke="#3b82f6" stroke-opacity="0.55" stroke-width="1.4"/><rect x="749" y="202" width="40" height="40" rx="9" fill="#3b82f6" fill-opacity="0.16" stroke="#3b82f6" stroke-opacity="0.5"/><path d="M 767 216 l 0 9 a 5 5 0 0 0 10 0 l 0 -12 a 3.2 3.2 0 0 0 -6.4 0 l 0 11" stroke="#dbe6f5" stroke-width="1.7" fill="none" stroke-linecap="round" stroke-linejoin="round"/><text x="802" y="214" fill="#eef3fb" font-size="15.5" font-weight="700">attachments.py</text><text x="802" y="231" fill="#8593aa" font-size="10.8">extract · classify</text><text x="802" y="244" fill="#8593aa" font-size="10.8">(vision + text)</text><rect x="1108" y="188" width="258" height="68" rx="11" fill="#0e1626" stroke="#3b82f6" stroke-opacity="0.55" stroke-width="1.4"/><rect x="1121" y="202" width="40" height="40" rx="9" fill="#3b82f6" fill-opacity="0.16" stroke="#3b82f6" stroke-opacity="0.5"/><path d="M 1141 213 l 8 3 l 0 7 q 0 6 -8 9 q -8 -3 -8 -9 l 0 -7 Z" stroke="#dbe6f5" stroke-width="1.7" fill="none" stroke-linecap="round" stroke-linejoin="round"/><text x="1174" y="214" fill="#eef3fb" font-size="15.5" font-weight="700">InputValidator</text><text x="1174" y="231" fill="#8593aa" font-size="10.8">size · format</text><text x="1174" y="244" fill="#8593aa" font-size="10.8">injection scan</text><rect x="205" y="312" width="250" height="66" rx="11" fill="#0e1626" stroke="#84cc16" stroke-opacity="0.55" stroke-width="1.4"/><rect x="218" y="325" width="40" height="40" rx="9" fill="#84cc16" fill-opacity="0.16" stroke="#84cc16" stroke-opacity="0.5"/><rect x="226" y="348" width="7" height="6" rx="1.4" stroke="#dbe6f5" stroke-width="1.7" fill="none" stroke-linecap="round" stroke-linejoin="round"/><rect x="235" y="348" width="7" height="6" rx="1.4" stroke="#dbe6f5" stroke-width="1.7" fill="none" stroke-linecap="round" stroke-linejoin="round"/><rect x="244" y="348" width="7" height="6" rx="1.4" stroke="#dbe6f5" stroke-width="1.7" fill="none" stroke-linecap="round" stroke-linejoin="round"/><rect x="235" y="336" width="7" height="6" rx="1.4" stroke="#dbe6f5" stroke-width="1.7" fill="none" stroke-linecap="round" stroke-linejoin="round"/><path d="M 229 348 v 4 h 18 v -4 M 238 348 v -3 M 238 342 v 6" stroke="#dbe6f5" stroke-width="1.7" fill="none" stroke-linecap="round" stroke-linejoin="round"/><text x="271" y="337" fill="#eef3fb" font-size="15.5" font-weight="700">Pipeline Orchestrator</text><text x="271" y="354" fill="#8593aa" font-size="10.8">session-based</text><text x="271" y="367" fill="#8593aa" font-size="10.8">dependency order</text><rect x="520" y="312" width="215" height="66" rx="11" fill="#0e1626" stroke="#84cc16" stroke-opacity="0.55" stroke-width="1.4"/><rect x="533" y="325" width="40" height="40" rx="9" fill="#84cc16" fill-opacity="0.16" stroke="#84cc16" stroke-opacity="0.5"/><circle cx="548" cy="341" r="3.4" stroke="#dbe6f5" stroke-width="1.7" fill="none" stroke-linecap="round" stroke-linejoin="round"/><circle cx="558" cy="341" r="3.4" stroke="#dbe6f5" stroke-width="1.7" fill="none" stroke-linecap="round" stroke-linejoin="round"/><path d="M 542 353 q 5 -8 10 0 M 554 353 q 5 -8 10 0" stroke="#dbe6f5" stroke-width="1.7" fill="none" stroke-linecap="round" stroke-linejoin="round"/><text x="586" y="337" fill="#eef3fb" font-size="15.5" font-weight="700">ClaimSession</text><text x="586" y="354" fill="#8593aa" font-size="10.8">immutable · versioned</text><rect x="760" y="312" width="205" height="66" rx="11" fill="#0e1626" stroke="#84cc16" stroke-opacity="0.55" stroke-width="1.4"/><rect x="773" y="325" width="40" height="40" rx="9" fill="#84cc16" fill-opacity="0.16" stroke="#84cc16" stroke-opacity="0.5"/><path d="M 793 336 l 8 3 l 0 7 q 0 6 -8 9 q -8 -3 -8 -9 l 0 -7 Z" stroke="#dbe6f5" stroke-width="1.7" fill="none" stroke-linecap="round" stroke-linejoin="round"/><text x="826" y="337" fill="#eef3fb" font-size="15.5" font-weight="700">Mail Guard  00</text><text x="826" y="354" fill="#8593aa" font-size="10.8">4 required fields</text><text x="826" y="367" fill="#8593aa" font-size="10.8">rewrite</text><rect x="1000" y="312" width="175" height="66" rx="11" fill="#0e1626" stroke="#84cc16" stroke-opacity="0.55" stroke-width="1.4"/><rect x="1013" y="325" width="40" height="40" rx="9" fill="#84cc16" fill-opacity="0.16" stroke="#84cc16" stroke-opacity="0.5"/><rect x="1021" y="348" width="7" height="6" rx="1.4" stroke="#dbe6f5" stroke-width="1.7" fill="none" stroke-linecap="round" stroke-linejoin="round"/><rect x="1030" y="348" width="7" height="6" rx="1.4" stroke="#dbe6f5" stroke-width="1.7" fill="none" stroke-linecap="round" stroke-linejoin="round"/><rect x="1039" y="348" width="7" height="6" rx="1.4" stroke="#dbe6f5" stroke-width="1.7" fill="none" stroke-linecap="round" stroke-linejoin="round"/><rect x="1030" y="336" width="7" height="6" rx="1.4" stroke="#dbe6f5" stroke-width="1.7" fill="none" stroke-linecap="round" stroke-linejoin="round"/><path d="M 1024 348 v 4 h 18 v -4 M 1033 348 v -3 M 1033 342 v 6" stroke="#dbe6f5" stroke-width="1.7" fill="none" stroke-linecap="round" stroke-linejoin="round"/><text x="1066" y="337" fill="#eef3fb" font-size="15.5" font-weight="700">Router  02</text><text x="1066" y="354" fill="#8593aa" font-size="10.8">fast-path</text><text x="1066" y="367" fill="#8593aa" font-size="10.8">LLM select</text><rect x="1195" y="312" width="222" height="66" rx="11" fill="#0e1626" stroke="#84cc16" stroke-opacity="0.55" stroke-width="1.4"/><rect x="1208" y="325" width="40" height="40" rx="9" fill="#84cc16" fill-opacity="0.16" stroke="#84cc16" stroke-opacity="0.5"/><circle cx="1228" cy="345" r="5" stroke="#dbe6f5" stroke-width="1.7" fill="none" stroke-linecap="round" stroke-linejoin="round"/><circle cx="1228" cy="345" r="9.2" stroke="#dbe6f5" stroke-width="1.7" fill="none" stroke-linecap="round" stroke-linejoin="round" stroke-dasharray="2.2 3.2"/><text x="1261" y="337" fill="#eef3fb" font-size="15.5" font-weight="700">Shared Runtime</text><text x="1261" y="354" fill="#8593aa" font-size="10.8">config · audit</text><text x="1261" y="367" fill="#8593aa" font-size="10.8">openai_client</text><rect x="205" y="400" width="250" height="74" rx="11" fill="#0e1626" stroke="#84cc16" stroke-opacity="0.55" stroke-width="1.4"/><rect x="218" y="417" width="40" height="40" rx="9" fill="#84cc16" fill-opacity="0.16" stroke="#84cc16" stroke-opacity="0.5"/><path d="M 236 431 l 0 9 a 5 5 0 0 0 10 0 l 0 -12 a 3.2 3.2 0 0 0 -6.4 0 l 0 11" stroke="#dbe6f5" stroke-width="1.7" fill="none" stroke-linecap="round" stroke-linejoin="round"/><text x="271" y="429" fill="#eef3fb" font-size="15.5" font-weight="700">Intake  01</text><text x="271" y="446" fill="#8593aa" font-size="10.8">30+ fields</text><text x="271" y="459" fill="#8593aa" font-size="10.8">deterministic fallback</text><rect x="478" y="400" width="255" height="74" rx="11" fill="#0e1626" stroke="#84cc16" stroke-opacity="0.55" stroke-width="1.4"/><rect x="491" y="417" width="40" height="40" rx="9" fill="#84cc16" fill-opacity="0.16" stroke="#84cc16" stroke-opacity="0.5"/><path d="M 511 428 l 8 3 l 0 7 q 0 6 -8 9 q -8 -3 -8 -9 l 0 -7 Z" stroke="#dbe6f5" stroke-width="1.7" fill="none" stroke-linecap="round" stroke-linejoin="round"/><text x="544" y="429" fill="#eef3fb" font-size="15.5" font-weight="700">Coverage  03</text><text x="544" y="446" fill="#8593aa" font-size="10.8">infer policy · itemize</text><text x="544" y="459" fill="#8593aa" font-size="10.8">deterministic fallback</text><rect x="756" y="400" width="250" height="74" rx="11" fill="#0e1626" stroke="#84cc16" stroke-opacity="0.55" stroke-width="1.4"/><rect x="769" y="417" width="40" height="40" rx="9" fill="#84cc16" fill-opacity="0.16" stroke="#84cc16" stroke-opacity="0.5"/><path d="M 785 439 a 4 4 0 0 1 8 0" stroke="#dbe6f5" stroke-width="1.7" fill="none" stroke-linecap="round" stroke-linejoin="round"/><path d="M 782 439 a 7 7 0 0 1 14 0" stroke="#dbe6f5" stroke-width="1.7" fill="none" stroke-linecap="round" stroke-linejoin="round"/><path d="M 779 439 a 10 10 0 0 1 20 0" stroke="#dbe6f5" stroke-width="1.7" fill="none" stroke-linecap="round" stroke-linejoin="round"/><path d="M 789 439 v 4" stroke="#dbe6f5" stroke-width="1.7" fill="none" stroke-linecap="round" stroke-linejoin="round"/><text x="822" y="429" fill="#eef3fb" font-size="15.5" font-weight="700">Fraud  04</text><text x="822" y="446" fill="#8593aa" font-size="10.8">13 SIU signals → score</text><text x="822" y="459" fill="#8593aa" font-size="10.8">immutable before LLM</text><rect x="1028" y="400" width="180" height="74" rx="11" fill="#0e1626" stroke="#84cc16" stroke-opacity="0.55" stroke-width="1.4"/><rect x="1041" y="417" width="40" height="40" rx="9" fill="#84cc16" fill-opacity="0.16" stroke="#84cc16" stroke-opacity="0.5"/><path d="M 1061 428 l 9 16 h -18 Z" stroke="#dbe6f5" stroke-width="1.7" fill="none" stroke-linecap="round" stroke-linejoin="round"/><path d="M 1061 436 v 4" stroke="#dbe6f5" stroke-width="1.7" fill="none" stroke-linecap="round" stroke-linejoin="round"/><circle cx="1061" cy="442" r="0.9" fill="#dbe6f5"/><text x="1094" y="429" fill="#eef3fb" font-size="15.5" font-weight="700">Triage  05</text><text x="1094" y="446" fill="#8593aa" font-size="10.8">routing</text><text x="1094" y="459" fill="#8593aa" font-size="10.8">hard override</text><rect x="1230" y="400" width="187" height="74" rx="11" fill="#0e1626" stroke="#84cc16" stroke-opacity="0.55" stroke-width="1.4"/><rect x="1243" y="417" width="40" height="40" rx="9" fill="#84cc16" fill-opacity="0.16" stroke="#84cc16" stroke-opacity="0.5"/><circle cx="1263" cy="433" r="4.2" stroke="#dbe6f5" stroke-width="1.7" fill="none" stroke-linecap="round" stroke-linejoin="round"/><path d="M 1255 446 q 8 -11 16 0" stroke="#dbe6f5" stroke-width="1.7" fill="none" stroke-linecap="round" stroke-linejoin="round"/><text x="1296" y="429" fill="#eef3fb" font-size="15.5" font-weight="700">Copilot  06</text><text x="1296" y="446" fill="#8593aa" font-size="10.8">multi-role brief</text><text x="1296" y="459" fill="#8593aa" font-size="10.8">never decides</text><rect x="258" y="506" width="300" height="68" rx="11" fill="#0e1626" stroke="#a855f7" stroke-opacity="0.55" stroke-width="1.4"/><rect x="271" y="520" width="40" height="40" rx="9" fill="#a855f7" fill-opacity="0.16" stroke="#a855f7" stroke-opacity="0.5"/><circle cx="291" cy="540" r="9.5" stroke="#dbe6f5" stroke-width="1.7" fill="none" stroke-linecap="round" stroke-linejoin="round"/><path d="M 291 535 q 9 -3 9 5 q 0 8 -9 5 q -9 3 -9 -5 q 0 -8 9 -5 Z" stroke="#dbe6f5" stroke-width="1.7" fill="none" stroke-linecap="round" stroke-linejoin="round"/><text x="324" y="532" fill="#eef3fb" font-size="15.5" font-weight="700">OpenAI Responses API</text><text x="324" y="549" fill="#8593aa" font-size="10.8">structured JSON</text><text x="324" y="562" fill="#8593aa" font-size="10.8">deterministic fallback</text><rect x="600" y="506" width="225" height="68" rx="11" fill="#0e1626" stroke="#a855f7" stroke-opacity="0.55" stroke-width="1.4"/><rect x="613" y="520" width="40" height="40" rx="9" fill="#a855f7" fill-opacity="0.16" stroke="#a855f7" stroke-opacity="0.5"/><path d="M 630 539 q 2 -6 3 -8 q 1 2 3 8 q 6 2 8 3 q -6 1 -8 3 q -2 6 -3 8 q -1 -2 -3 -8 q -6 -2 -8 -3 q 6 -1 8 -3 Z" fill="#dbe6f5" stroke="none"/><circle cx="640" cy="533" r="1.3" fill="#dbe6f5" stroke="none"/><text x="666" y="532" fill="#eef3fb" font-size="15.5" font-weight="700">gpt-4o-mini</text><text x="666" y="549" fill="#8593aa" font-size="10.8">text · vision</text><rect x="850" y="506" width="225" height="68" rx="11" fill="#0e1626" stroke="#a855f7" stroke-opacity="0.55" stroke-width="1.4"/><rect x="863" y="520" width="40" height="40" rx="9" fill="#a855f7" fill-opacity="0.16" stroke="#a855f7" stroke-opacity="0.5"/><path d="M 882 532 a 5 5 0 0 0 -1 10 M 884 532 a 5 5 0 0 1 1 10" stroke="#dbe6f5" stroke-width="1.7" fill="none" stroke-linecap="round" stroke-linejoin="round"/><path d="M 883 532 v 16 M 883 537 h -4 M 883 543 h 4" stroke="#dbe6f5" stroke-width="1.7" fill="none" stroke-linecap="round" stroke-linejoin="round"/><text x="916" y="532" fill="#eef3fb" font-size="15.5" font-weight="700">o4-mini</text><text x="916" y="549" fill="#8593aa" font-size="10.8">agent reasoning</text><rect x="1100" y="506" width="225" height="68" rx="11" fill="#0e1626" stroke="#a855f7" stroke-opacity="0.55" stroke-width="1.4"/><rect x="1113" y="520" width="40" height="40" rx="9" fill="#a855f7" fill-opacity="0.16" stroke="#a855f7" stroke-opacity="0.5"/><rect x="1121" y="543" width="7" height="6" rx="1.4" stroke="#dbe6f5" stroke-width="1.7" fill="none" stroke-linecap="round" stroke-linejoin="round"/><rect x="1130" y="543" width="7" height="6" rx="1.4" stroke="#dbe6f5" stroke-width="1.7" fill="none" stroke-linecap="round" stroke-linejoin="round"/><rect x="1139" y="543" width="7" height="6" rx="1.4" stroke="#dbe6f5" stroke-width="1.7" fill="none" stroke-linecap="round" stroke-linejoin="round"/><rect x="1130" y="531" width="7" height="6" rx="1.4" stroke="#dbe6f5" stroke-width="1.7" fill="none" stroke-linecap="round" stroke-linejoin="round"/><path d="M 1124 543 v 4 h 18 v -4 M 1133 543 v -3 M 1133 537 v 6" stroke="#dbe6f5" stroke-width="1.7" fill="none" stroke-linecap="round" stroke-linejoin="round"/><text x="1166" y="532" fill="#eef3fb" font-size="15.5" font-weight="700">gpt-5.5</text><text x="1166" y="549" fill="#8593aa" font-size="10.8">router · orchestrator</text><rect x="258" y="616" width="268" height="68" rx="11" fill="#0e1626" stroke="#f59e0b" stroke-opacity="0.55" stroke-width="1.4"/><rect x="271" y="630" width="40" height="40" rx="9" fill="#f59e0b" fill-opacity="0.16" stroke="#f59e0b" stroke-opacity="0.5"/><ellipse cx="291" cy="644" rx="9" ry="3.4" stroke="#dbe6f5" stroke-width="1.7" fill="none" stroke-linecap="round" stroke-linejoin="round"/><path d="M 282 644 v 12 a 9 3.4 0 0 0 18 0 v -12" stroke="#dbe6f5" stroke-width="1.7" fill="none" stroke-linecap="round" stroke-linejoin="round"/><path d="M 282 650 a 9 3.4 0 0 0 18 0" stroke="#dbe6f5" stroke-width="1.7" fill="none" stroke-linecap="round" stroke-linejoin="round"/><text x="324" y="642" fill="#eef3fb" font-size="15.5" font-weight="700">Google BigQuery</text><text x="324" y="659" fill="#8593aa" font-size="10.8">claims_master · audit_trail</text><text x="324" y="672" fill="#8593aa" font-size="10.8">policies</text><rect x="575" y="616" width="232" height="68" rx="11" fill="#0e1626" stroke="#f59e0b" stroke-opacity="0.55" stroke-width="1.4"/><rect x="588" y="630" width="40" height="40" rx="9" fill="#f59e0b" fill-opacity="0.16" stroke="#f59e0b" stroke-opacity="0.5"/><path d="M 608 642 l 6 10 h -12 Z M 605 647 l -6 10 M 611 647 l 6 10 M 602 652 h 12" stroke="#dbe6f5" stroke-width="1.7" fill="none" stroke-linecap="round" stroke-linejoin="round"/><text x="641" y="642" fill="#eef3fb" font-size="15.5" font-weight="700">Google Drive</text><text x="641" y="659" fill="#8593aa" font-size="10.8">attachments +</text><text x="641" y="672" fill="#8593aa" font-size="10.8">adjuster PDF</text><rect x="858" y="616" width="222" height="68" rx="11" fill="#0e1626" stroke="#f59e0b" stroke-opacity="0.55" stroke-width="1.4"/><rect x="871" y="630" width="40" height="40" rx="9" fill="#f59e0b" fill-opacity="0.16" stroke="#f59e0b" stroke-opacity="0.5"/><rect x="883" y="640" width="16" height="20" rx="2" stroke="#dbe6f5" stroke-width="1.7" fill="none" stroke-linecap="round" stroke-linejoin="round"/><path d="M 886 646 h 8 M 886 651 h 8 M 886 656 h 5" stroke="#dbe6f5" stroke-width="1.7" fill="none" stroke-linecap="round" stroke-linejoin="round"/><text x="924" y="642" fill="#eef3fb" font-size="15.5" font-weight="700">Google Forms</text><text x="924" y="659" fill="#8593aa" font-size="10.8">decision → BigQuery</text><rect x="1128" y="616" width="238" height="68" rx="11" fill="#0e1626" stroke="#f59e0b" stroke-opacity="0.55" stroke-width="1.4"/><rect x="1141" y="630" width="40" height="40" rx="9" fill="#f59e0b" fill-opacity="0.16" stroke="#f59e0b" stroke-opacity="0.5"/><circle cx="1155" cy="644" r="2.4" fill="#dbe6f5"/><circle cx="1167" cy="646" r="2.4" fill="#dbe6f5"/><circle cx="1159" cy="656" r="2.4" fill="#dbe6f5"/><circle cx="1168" cy="656" r="2.4" fill="#dbe6f5"/><path d="M 1155 644 L 1167 646 L 1168 656" stroke="#dbe6f5" stroke-width="1.7" fill="none" stroke-linecap="round" stroke-linejoin="round"/><text x="1194" y="642" fill="#eef3fb" font-size="15.5" font-weight="700">Looker Studio</text><text x="1194" y="659" fill="#8593aa" font-size="10.8">reads BigQuery views</text><rect x="258" y="726" width="268" height="68" rx="11" fill="#0e1626" stroke="#14b8a6" stroke-opacity="0.55" stroke-width="1.4"/><rect x="271" y="740" width="40" height="40" rx="9" fill="#14b8a6" fill-opacity="0.16" stroke="#14b8a6" stroke-opacity="0.5"/><rect x="280" y="752" width="22" height="16" rx="2.5" stroke="#dbe6f5" stroke-width="1.7" fill="none" stroke-linecap="round" stroke-linejoin="round"/><path d="M 281 754 L 291 762 L 301 754" stroke="#dbe6f5" stroke-width="1.7" fill="none" stroke-linecap="round" stroke-linejoin="round"/><text x="324" y="752" fill="#eef3fb" font-size="15.5" font-weight="700">SMTP Email Updates</text><text x="324" y="769" fill="#8593aa" font-size="10.8">ack · coverage · fraud</text><text x="324" y="782" fill="#8593aa" font-size="10.8">assessment + PDF</text><rect x="575" y="726" width="232" height="68" rx="11" fill="#0e1626" stroke="#14b8a6" stroke-opacity="0.55" stroke-width="1.4"/><rect x="588" y="740" width="40" height="40" rx="9" fill="#14b8a6" fill-opacity="0.16" stroke="#14b8a6" stroke-opacity="0.5"/><rect x="599" y="759" width="17" height="12" rx="2.4" stroke="#dbe6f5" stroke-width="1.7" fill="none" stroke-linecap="round" stroke-linejoin="round"/><path d="M 603 759 v -3 a 4.5 4.5 0 0 1 9 0 v 3" stroke="#dbe6f5" stroke-width="1.7" fill="none" stroke-linecap="round" stroke-linejoin="round"/><circle cx="608" cy="765" r="1.4" fill="#dbe6f5"/><text x="641" y="752" fill="#eef3fb" font-size="15.5" font-weight="700">Approval Gate</text><text x="641" y="769" fill="#8593aa" font-size="10.8">mandatory for high-risk</text><text x="641" y="782" fill="#8593aa" font-size="10.8">&amp; high-value</text><rect x="858" y="726" width="232" height="68" rx="11" fill="#0e1626" stroke="#14b8a6" stroke-opacity="0.55" stroke-width="1.4"/><rect x="871" y="740" width="40" height="40" rx="9" fill="#14b8a6" fill-opacity="0.16" stroke="#14b8a6" stroke-opacity="0.5"/><rect x="880" y="752" width="22" height="17" rx="2.5" stroke="#dbe6f5" stroke-width="1.7" fill="none" stroke-linecap="round" stroke-linejoin="round"/><path d="M 885 758 l 4 3 l -4 3" stroke="#dbe6f5" stroke-width="1.7" fill="none" stroke-linecap="round" stroke-linejoin="round"/><path d="M 892 764 h 6" stroke="#dbe6f5" stroke-width="1.7" fill="none" stroke-linecap="round" stroke-linejoin="round"/><text x="924" y="752" fill="#eef3fb" font-size="15.5" font-weight="700">Streamlit Console</text><text x="924" y="769" fill="#8593aa" font-size="10.8">traceability JSON</text><text x="924" y="782" fill="#8593aa" font-size="10.8">live logs</text><rect x="1128" y="726" width="238" height="68" rx="11" fill="#0e1626" stroke="#14b8a6" stroke-opacity="0.55" stroke-width="1.4"/><rect x="1141" y="740" width="40" height="40" rx="9" fill="#14b8a6" fill-opacity="0.16" stroke="#14b8a6" stroke-opacity="0.5"/><circle cx="1161" cy="760" r="9" stroke="#dbe6f5" stroke-width="1.7" fill="none" stroke-linecap="round" stroke-linejoin="round"/><ellipse cx="1161" cy="760" rx="3.6" ry="9" stroke="#dbe6f5" stroke-width="1.7" fill="none" stroke-linecap="round" stroke-linejoin="round"/><path d="M 1152 760 h 18 M 1154 755 h 14 M 1154 764 h 14" stroke="#dbe6f5" stroke-width="1.7" fill="none" stroke-linecap="round" stroke-linejoin="round"/><text x="1194" y="752" fill="#eef3fb" font-size="15.5" font-weight="700">Reviewer Website</text><text x="1194" y="769" fill="#8593aa" font-size="10.8">static site</text><text x="1194" y="782" fill="#8593aa" font-size="10.8">playground &amp; docs</text><rect x="258" y="836" width="240" height="68" rx="11" fill="#0e1626" stroke="#ec4899" stroke-opacity="0.55" stroke-width="1.4"/><rect x="271" y="850" width="40" height="40" rx="9" fill="#ec4899" fill-opacity="0.16" stroke="#ec4899" stroke-opacity="0.5"/><path d="M 289 864 l 0 9 a 5 5 0 0 0 10 0 l 0 -12 a 3.2 3.2 0 0 0 -6.4 0 l 0 11" stroke="#dbe6f5" stroke-width="1.7" fill="none" stroke-linecap="round" stroke-linejoin="round"/><text x="324" y="862" fill="#eef3fb" font-size="15.5" font-weight="700">Audit Trail</text><text x="324" y="879" fill="#8593aa" font-size="10.8">logs every</text><text x="324" y="892" fill="#8593aa" font-size="10.8">agent decision</text><rect x="528" y="836" width="222" height="68" rx="11" fill="#0e1626" stroke="#ec4899" stroke-opacity="0.55" stroke-width="1.4"/><rect x="541" y="850" width="40" height="40" rx="9" fill="#ec4899" fill-opacity="0.16" stroke="#ec4899" stroke-opacity="0.5"/><rect x="552" y="869" width="17" height="12" rx="2.4" stroke="#dbe6f5" stroke-width="1.7" fill="none" stroke-linecap="round" stroke-linejoin="round"/><path d="M 556 869 v -3 a 4.5 4.5 0 0 1 9 0 v 3" stroke="#dbe6f5" stroke-width="1.7" fill="none" stroke-linecap="round" stroke-linejoin="round"/><circle cx="561" cy="875" r="1.4" fill="#dbe6f5"/><text x="594" y="862" fill="#eef3fb" font-size="15.5" font-weight="700">IAM · Secrets</text><text x="594" y="879" fill="#8593aa" font-size="10.8">.env · credential</text><text x="594" y="892" fill="#8593aa" font-size="10.8">isolation</text><rect x="790" y="836" width="235" height="68" rx="11" fill="#0e1626" stroke="#ec4899" stroke-opacity="0.55" stroke-width="1.4"/><rect x="803" y="850" width="40" height="40" rx="9" fill="#ec4899" fill-opacity="0.16" stroke="#ec4899" stroke-opacity="0.5"/><path d="M 817 874 a 5 5 0 0 1 9 -2 a 4 4 0 0 1 3 8 h -11 a 4 4 0 0 1 -1 -6 Z" stroke="#dbe6f5" stroke-width="1.7" fill="none" stroke-linecap="round" stroke-linejoin="round"/><text x="856" y="862" fill="#eef3fb" font-size="15.5" font-weight="700">Cloud Logging</text><text x="856" y="879" fill="#8593aa" font-size="10.8">durations</text><text x="856" y="892" fill="#8593aa" font-size="10.8">statuses</text><rect x="1070" y="836" width="235" height="68" rx="11" fill="#0e1626" stroke="#ec4899" stroke-opacity="0.55" stroke-width="1.4"/><rect x="1083" y="850" width="40" height="40" rx="9" fill="#ec4899" fill-opacity="0.16" stroke="#ec4899" stroke-opacity="0.5"/><circle cx="1103" cy="866" r="4.2" stroke="#dbe6f5" stroke-width="1.7" fill="none" stroke-linecap="round" stroke-linejoin="round"/><path d="M 1095 879 q 8 -11 16 0" stroke="#dbe6f5" stroke-width="1.7" fill="none" stroke-linecap="round" stroke-linejoin="round"/><text x="1136" y="862" fill="#eef3fb" font-size="15.5" font-weight="700">Human authority</text><text x="1136" y="879" fill="#8593aa" font-size="10.8">AI assists,</text><text x="1136" y="892" fill="#8593aa" font-size="10.8">never decides</text><path d="M 387.0 146.0 L 387.0 148.0 L 352.0 148.0 L 352.0 188.0" fill="none" stroke="#22c55e" stroke-width="2" marker-end="url(#ag)"/><text x="329.0" y="164.0" fill="#22c55e" font-size="10.5" font-weight="600" text-anchor="middle">submit claim</text><path d="M 779.0 146.0 L 779.0 148.0 L 867.0 148.0 L 867.0 188.0" fill="none" stroke="#22c55e" stroke-width="2" marker-end="url(#ag)"/><text x="851.0" y="164.0" fill="#22c55e" font-size="10.5" font-weight="600" text-anchor="middle">unread poll</text><path d="M 472.0 222.0 L 486.0 222.0" stroke="#22c55e" stroke-width="2" marker-end="url(#ag)"/><path d="M 722.0 222.0 L 736.0 222.0" stroke="#22c55e" stroke-width="2" marker-end="url(#ag)"/><path d="M 998.0 222.0 L 1108.0 222.0" stroke="#22c55e" stroke-width="2" marker-end="url(#ag)"/><path d="M 1237.0 188.0 L 1237.0 146.0" stroke="#22c55e" stroke-width="2" marker-end="url(#ag)"/><text x="1279.0" y="158.0" fill="#22c55e" font-size="10.5" font-weight="600" text-anchor="middle">validate</text><path d="M 352.0 256.0 L 352.0 266.0 L 330.0 266.0 L 330.0 312.0" fill="none" stroke="#22c55e" stroke-width="2" marker-end="url(#ag)"/><text x="414.0" y="276.0" fill="#22c55e" font-size="10.5" font-weight="600" text-anchor="middle">start pipeline</text><path d="M 455.0 345.0 L 520.0 345.0" stroke="#22c55e" stroke-width="2" marker-end="url(#ag)"/><text x="487.5" y="334.0" fill="#22c55e" font-size="10.5" font-weight="600" text-anchor="middle">select</text><path d="M 735.0 345.0 L 760.0 345.0" stroke="#22c55e" stroke-width="2" marker-end="url(#ag)"/><path d="M 965.0 345.0 L 1000.0 345.0" stroke="#22c55e" stroke-width="2" marker-end="url(#ag)"/><text x="982.5" y="334.0" fill="#22c55e" font-size="10.5" font-weight="600" text-anchor="middle">route</text><path d="M 330.0 378.0 L 330.0 400.0" stroke="#22c55e" stroke-width="2" marker-end="url(#ag)"/><path d="M 455.0 437.0 L 478.0 437.0" stroke="#22c55e" stroke-width="2" marker-end="url(#ag)"/><text x="466.5" y="432.0" fill="#22c55e" font-size="10.5" font-weight="600" text-anchor="middle">brief + report</text><path d="M 733.0 437.0 L 756.0 437.0" stroke="#22c55e" stroke-width="2" marker-end="url(#ag)"/><text x="744.5" y="432.0" fill="#22c55e" font-size="10.5" font-weight="600" text-anchor="middle">evidence + PDF</text><path d="M 1006.0 437.0 L 1028.0 437.0" stroke="#22c55e" stroke-width="2" marker-end="url(#ag)"/><text x="1017.0" y="432.0" fill="#22c55e" font-size="10.5" font-weight="600" text-anchor="middle">route</text><path d="M 1208.0 437.0 L 1230.0 437.0" stroke="#22c55e" stroke-width="2" marker-end="url(#ag)"/><path d="M 1417.0 437.0 L 1445.0 437.0 L 1445.0 702.0 L 1247.0 702.0 L 1247.0 726.0" fill="none" stroke="#22c55e" stroke-width="2" marker-end="url(#ag)"/><path d="M 330.0 474.0 L 330.0 506.0" stroke="#3b82f6" stroke-width="2" stroke-dasharray="6 5" marker-end="url(#ab)"/><path d="M 605.5 474.0 L 605.5 506.0" stroke="#3b82f6" stroke-width="2" stroke-dasharray="6 5" marker-end="url(#ab)"/><path d="M 881.0 474.0 L 881.0 506.0" stroke="#3b82f6" stroke-width="2" stroke-dasharray="6 5" marker-end="url(#ab)"/><path d="M 1118.0 474.0 L 1118.0 506.0" stroke="#3b82f6" stroke-width="2" stroke-dasharray="6 5" marker-end="url(#ab)"/><path d="M 1323.5 474.0 L 1323.5 506.0" stroke="#3b82f6" stroke-width="2" stroke-dasharray="6 5" marker-end="url(#ab)"/><path d="M 1087.5 378.0 L 1087.5 506.0" stroke="#3b82f6" stroke-width="2" stroke-dasharray="6 5" marker-end="url(#ab)"/><path d="M 565.5 474.0 L 565.5 586.0 L 412.0 586.0 L 412.0 616.0" fill="none" stroke="#f59e0b" stroke-width="2" stroke-dasharray="6 5" marker-end="url(#aa)"/><text x="440.0" y="484.0" fill="#f59e0b" font-size="10.5" font-weight="600" text-anchor="middle">write claim + audit</text><path d="M 1080.0 650.0 L 1128.0 650.0" stroke="#f59e0b" stroke-width="2" stroke-dasharray="6 5" marker-end="url(#aa)"/><text x="1104.0" y="656.0" fill="#f59e0b" font-size="10.5" font-weight="600" text-anchor="middle">reads views</text><path d="M 392.0 684.0 L 392.0 726.0" stroke="#f59e0b" stroke-width="2" stroke-dasharray="6 5" marker-end="url(#aa)"/><path d="M 691.0 684.0 L 691.0 726.0" stroke="#f59e0b" stroke-width="2" stroke-dasharray="6 5" marker-end="url(#aa)"/><path d="M 362.0 684.0 L 362.0 810.0 L 378.0 810.0 L 378.0 836.0" fill="none" stroke="#f59e0b" stroke-width="2" stroke-dasharray="6 5" marker-end="url(#aa)"/><path d="M 392.0 726.0 L 392.0 532.0 L 765.0 532.0 L 765.0 290.0 L 604.0 290.0 L 604.0 256.0" fill="none" stroke="#2dd4bf" stroke-width="2" stroke-dasharray="6 5" marker-end="url(#at)"/><text x="620.0" y="276.0" fill="#2dd4bf" font-size="10.5" font-weight="600" text-anchor="middle">email reply (SMTP)</text><path d="M 526.0 760.0 L 575.0 760.0" stroke="#2dd4bf" stroke-width="2" stroke-dasharray="6 5" marker-end="url(#at)"/><path d="M 807.0 760.0 L 858.0 760.0" stroke="#2dd4bf" stroke-width="2" stroke-dasharray="6 5" marker-end="url(#at)"/><path d="M 691.0 794.0 L 639.0 836.0" stroke="#ec4899" stroke-width="2" stroke-dasharray="6 5" marker-end="url(#ap)"/><path d="M 750.0 870.0 L 790.0 870.0" stroke="#ec4899" stroke-width="2" stroke-dasharray="6 5" marker-end="url(#ap)"/><path d="M 1025.0 870.0 L 1070.0 870.0" stroke="#ec4899" stroke-width="2" stroke-dasharray="6 5" marker-end="url(#ap)"/><path d="M 807.0 742.0 L 1490.0 712.0 L 1490.0 112.0 L 1368.0 112.0 L 1366.0 112.0" fill="none" stroke="#ec4899" stroke-width="2" stroke-dasharray="6 5" marker-end="url(#ap)"/><text x="1497.0" y="530.0" fill="#ec4899" font-size="10.5" font-weight="600" text-anchor="middle">human verdict</text><rect x="22" y="946" width="1492" height="62" rx="12" fill="#0c1322" stroke="#20293c"/><path d="M 150 977 h 34" stroke="#22c55e" stroke-width="2.4" marker-end="url(#ag)"/><text x="196" y="981" fill="#c7d2e2" font-size="12.5" font-weight="600">Primary Data Flow</text><path d="M 398 977 h 34" stroke="#3b82f6" stroke-width="2.4" stroke-dasharray="6 5" marker-end="url(#ab)"/><text x="444" y="981" fill="#c7d2e2" font-size="12.5" font-weight="600">LLM / Inference Flow</text><path d="M 646 977 h 34" stroke="#2dd4bf" stroke-width="2.4" stroke-dasharray="6 5" marker-end="url(#at)"/><text x="692" y="981" fill="#c7d2e2" font-size="12.5" font-weight="600">Notifications / Email Flow</text><path d="M 894 977 h 34" stroke="#f59e0b" stroke-width="2.4" stroke-dasharray="6 5" marker-end="url(#aa)"/><text x="940" y="981" fill="#c7d2e2" font-size="12.5" font-weight="600">Audit / Logging Flow</text><path d="M 1142 977 h 34" stroke="#ec4899" stroke-width="2.4" stroke-dasharray="6 5" marker-end="url(#ap)"/><text x="1188" y="981" fill="#c7d2e2" font-size="12.5" font-weight="600">Control / Escalation Flow</text><text x="1300" y="972" fill="#8593aa" font-size="11.5">Solid lines = primary flows</text><text x="1300" y="990" fill="#8593aa" font-size="11.5">Dashed lines = supporting flows</text></svg>